<!--?xml version="1.0" standalone="no"?-->
              <svg id="sw-js-blob-svg" viewBox="0 0 100 100" xmlns="http://www.w3.org/2000/svg" version="1.1">
                    <defs> 
                        <linearGradient id="sw-gradient" x1="0" x2="1" y1="1" y2="0">
                            <stop id="stop1" stop-color="rgba(248, 119.152, 55, 1)" offset="0%"></stop>
                            <stop id="stop2" stop-color="rgba(251, 70.591, 31, 1)" offset="100%"></stop>
                        </linearGradient>
                    </defs>
                <path fill="url(#sw-gradient)" d="M16.3,-28.5C19.2,-23.5,18.3,-15.7,22.7,-9.4C27.2,-3,37,1.9,37.2,5.9C37.4,9.9,28,13,22,17.8C15.9,22.5,13.1,28.8,7.9,33.3C2.7,37.9,-5,40.6,-10.9,38.3C-16.8,36.1,-21,28.9,-26.7,22.8C-32.4,16.8,-39.8,11.8,-40.3,6C-40.8,0.2,-34.4,-6.3,-31,-14.2C-27.5,-22.2,-26.9,-31.5,-22.2,-35.7C-17.5,-39.8,-8.8,-38.8,-1,-37.2C6.7,-35.6,13.4,-33.5,16.3,-28.5Z" width="100%" height="100%" transform="translate(50 50)" stroke-width="0" style="transition: all 0.3s ease 0s;"></path>
              </svg>