<!--?xml version="1.0" standalone="no"?-->
              <svg id="sw-js-blob-svg" viewBox="0 0 100 100" xmlns="http://www.w3.org/2000/svg" version="1.1">
                    <defs> 
                        <linearGradient id="sw-gradient" x1="0" x2="1" y1="1" y2="0">
                            <stop id="stop1" stop-color="rgba(248, 117, 55, 1)" offset="0%"></stop>
                            <stop id="stop2" stop-color="rgba(251, 168, 31, 1)" offset="100%"></stop>
                        </linearGradient>
                    </defs>
                <path fill="url(#sw-gradient)" d="M20.6,-25.6C27.3,-19,33.7,-13,37.4,-4.7C41.1,3.6,42,14.2,37.2,20.4C32.3,26.6,21.7,28.4,12.3,30.2C2.9,32.1,-5.1,34.1,-12.4,32.2C-19.7,30.3,-26.2,24.6,-29.9,17.6C-33.7,10.5,-34.6,2.1,-33.4,-6.1C-32.3,-14.4,-29,-22.5,-23.1,-29.3C-17.1,-36.1,-8.6,-41.5,-0.8,-40.6C7,-39.6,13.9,-32.3,20.6,-25.6Z" width="100%" height="100%" transform="translate(50 50)" stroke-width="0" style="transition: all 0.3s ease 0s;"></path>
              </svg>